<?xml version="1.0" standalone="no"?><!DOCTYPE svg PUBLIC "-//W3C//DTD SVG 1.1//EN" "http://www.w3.org/Graphics/SVG/1.1/DTD/svg11.dtd"><svg t="1735197691971" class="icon" viewBox="0 0 1024 1024" version="1.1" xmlns="http://www.w3.org/2000/svg" p-id="5387" width="40" height="40" xmlns:xlink="http://www.w3.org/1999/xlink"><path d="M243.369529 405.959111c3.697778 11.207111 8.248889 19.797333 11.605333 22.129778 4.664889 3.185778 7.907556 3.754667 25.201778 4.437333 17.237333 0.625778 31.914667 2.446222 39.651556 4.892445 6.428444 1.991111 13.084444 7.793778 14.392888 12.515555 0.568889 1.877333 0.910222 14.165333 0.853334 27.192889-0.056889 23.608889-0.056889 23.779556 2.844444 34.816 3.128889 11.832889 8.931556 25.429333 10.808889 25.372445a34.417778 34.417778 0 0 0 7.395556-5.802667c34.759111-32.711111 62.577778-46.819556 103.879111-52.565333 15.075556-2.048 41.472-1.422222 54.328889 1.365333 31.288889 6.769778 55.751111 20.195556 78.506666 43.235555 12.060444 12.231111 20.764444 24.405333 28.444445 39.936 9.102222 18.261333 14.222222 35.84 16.099555 54.613334l0.625778 6.371555 3.982222 1.536a500.622222 500.622222 0 0 0 21.902223 6.656c9.784889 2.844444 17.976889 5.290667 18.204444 5.518223 0.284444 0.341333-21.617778 7.281778-37.205333 11.776l-5.859556 1.706666 8.192 3.868445c4.551111 2.104889 10.695111 4.835556 13.653333 6.087111 3.015111 1.137778 5.688889 2.503111 5.916445 2.844444 0.227556 0.398222-6.257778 2.104889-14.449778 3.754667-19.057778 3.925333-18.204444 3.640889-18.261333 6.087111 0 4.437333-3.982222 25.6-7.623111 40.163556a419.783111 419.783111 0 0 1-80.213334 163.441777 387.413333 387.413333 0 0 1-49.265777 48.071111c-25.031111 18.887111-45.795556 29.809778-74.922667 39.253334-36.408889 11.832889-82.375111 17.635556-121.969778 15.303111a441.685333 441.685333 0 0 1-164.579555-41.187556 420.408889 420.408889 0 0 1-120.035556-82.375111c-14.620444-14.791111-15.530667-15.928889-14.165333-16.384 27.249778-9.272889 61.44-24.064 83.171555-36.010666 17.635556-9.671111 21.219556-11.832889 37.262222-22.300445 15.36-9.955556 27.648-19.114667 43.064889-31.857778l10.296889-8.476444-3.185778-2.844445c-28.615111-24.917333-42.382222-39.651556-57.571555-61.496888a218.737778 218.737778 0 0 1-25.486222-47.217778 139.662222 139.662222 0 0 1-6.997334-28.387556c0-3.072 0.113778-3.185778 3.128889-2.673778 26.510222 4.551111 40.618667 6.712889 57.628445 8.704 23.893333 2.787556 49.607111 5.290667 50.062222 4.835556a46.307556 46.307556 0 0 0-2.958222-7.736889 171.349333 171.349333 0 0 1-14.620445-59.448889 71.395556 71.395556 0 0 1 0-12.117333 954.595556 954.595556 0 0 0 67.584 21.617778c22.414222 6.030222 32.995556 8.931556 52.906667 14.449777 11.377778 3.128889 21.105778 5.688889 21.617778 5.688889 0.455111 0 1.308444-0.796444 1.820444-1.706666 0.739556-1.479111 0-2.787556-4.551111-7.395556a141.198222 141.198222 0 0 1-22.926222-35.271111 42.837333 42.837333 0 0 1-5.063111-18.659556C285.29664 493.795556 276.933973 485.774222 255.998862 482.417778c-32.199111-5.006222-50.574222-2.730667-83.512889 10.467555l-17.066666 6.826667a36.408889 36.408889 0 0 1-9.955556 1.024c-13.653333-0.170667-21.333333-6.712889-31.288889-26.510222a496.355556 496.355556 0 0 0-7.623111-14.677334c-3.413333-6.087111-1.991111-10.752 4.551111-14.279111 1.934222-1.080889 5.859556-3.584 8.760889-5.688889a47.445333 47.445333 0 0 1 5.688889-3.754666c0.284444 0 1.706667 2.616889 3.242667 5.916444 7.509333 16.497778 12.060444 25.315556 15.36 29.582222 10.24 13.141333 20.764444 14.165333 44.942222 4.266667 25.543111-10.410667 38.570667-13.425778 58.823111-13.482667 23.722667-0.056889 40.391111 3.413333 49.834667 10.638223a26.737778 26.737778 0 0 1 10.524444 15.189333l1.137778 4.323556 0.170667-5.233778c0.625778-23.324444 0.568889-24.064-1.706667-27.306667-2.730667-3.754667-7.395556-6.257778-14.392889-7.68a453.347556 453.347556 0 0 0-44.487111-3.925333 27.989333 27.989333 0 0 1-17.408-5.006222c-3.754667-3.072-8.362667-11.377778-11.662222-20.878223-3.128889-9.102222-2.958222-10.296889 1.991111-13.084444 1.536-0.853333 6.371556-3.868444 10.808889-6.769778 6.371556-4.096 8.135111-4.892444 8.419555-3.697778 0.170667 0.853333 1.137778 4.096 2.218667 7.224889z m303.729778 173.226667c-18.773333 5.973333-26.339556 24.348444-17.521778 42.780444 12.856889 26.965333 53.873778 37.319111 72.817778 18.432a25.6 25.6 0 0 0 7.964444-20.024889c0-8.533333-2.104889-13.880889-6.712889-16.896l-3.811555-2.503111 1.934222 2.787556c3.868444 5.347556 5.688889 10.808889 5.688889 16.611555 0 23.267556-29.923556 31.288889-49.208889 13.255111a26.339556 26.339556 0 0 1-9.557333-20.081777c0-10.012444 3.811556-16.327111 12.515555-20.764445 7.68-3.868444 15.928889-3.868444 26.851556 0 3.527111 1.308444-3.811556-4.437333-12.913778-10.126222-8.533333-5.290667-8.931556-5.461333-15.473778-5.404444a49.038222 49.038222 0 0 0-12.572444 1.934222z m37.319111 19.968a10.296889 10.296889 0 0 0-3.072 4.266666c-1.137778 2.787556-1.137778 3.640889 0 6.485334 1.536 3.640889 6.371556 7.168 9.841778 7.168 2.958222 0 7.509333-2.446222 8.704-4.721778 2.275556-4.152889 0-10.410667-4.664889-12.8-3.242667-1.706667-8.305778-1.877333-10.808889-0.398222z" fill="#D40000" p-id="5388"></path><path d="M535.493973 585.614222c10.638222-8.760889 25.6-8.362667 31.800889-7.111111 1.137778 0.284444 4.551111 1.706667 9.443556 4.721778 4.949333 3.072 22.016 16.156444 29.923555 22.300444a32.426667 32.426667 0 0 1 3.299556 21.845334c-2.844444 10.922667-11.377778 21.333333-30.833778 22.300444a52.337778 52.337778 0 0 1-45.056-20.878222c-8.533333-12.344889-11.889778-32.256 1.422222-43.178667z" fill="#FFFFFF" p-id="5389"></path><path d="M541.637973 568.206222l3.242667 1.137778 10.183111 3.925333 9.671111 3.697778c3.811556 1.365333 19.740444 11.377778 24.120889 15.132445l3.811556 3.242666-6.200889-2.503111c-20.081778-8.021333-39.424 3.527111-37.660445 22.584889 1.536 17.408 20.764444 30.890667 39.025778 27.420444 18.545778-3.470222 25.144889-21.959111 13.767111-38.456888-2.275556-3.413333-2.56-4.152889-1.137778-3.413334 1.024 0.568889 2.389333 1.649778 3.072 2.446222 2.048 2.56 4.152889 1.706667 9.557334-3.811555l5.176889-5.290667-2.332445-1.592889c-1.308444-0.853333-7.281778-5.12-13.312-9.557333-18.944-13.824-32.312889-21.674667-42.666666-25.201778l-6.599112-2.275555-11.719111 12.515555z m55.694223 33.28c2.673778 2.503111 3.413333 3.868444 3.413333 6.712889 0 5.063111-4.152889 9.045333-9.443556 9.045333a12.060444 12.060444 0 0 1-11.150222-9.671111c-0.455111-3.015111-0.170667-3.925333 2.332445-6.428444 2.389333-2.332444 3.697778-2.844444 7.168-2.844445 3.584 0 4.835556 0.512 7.68 3.185778z" fill="#000000" p-id="5390"></path><path d="M637.438862 624.526222v18.488889c0 12.913778-2.161778 24.348444-3.242666 28.444445-25.031111 4.778667-89.998222 9.955556-149.959112-7.111112-74.922667-21.333333-111.502222-45.056-131.868444-59.733333a239.217778 239.217778 0 0 1-33.678222-29.468444l-0.568889-0.341334c-0.341333 0.284444-0.682667 0.512-0.910222 0.512-0.512 0-10.24-2.56-21.617778-5.688889-19.911111-5.518222-30.492444-8.419556-52.906667-14.449777a954.595556 954.595556 0 0 1-67.584-21.617778c-0.284444 0-0.284444 5.461333 0 12.117333 0.796444 18.602667 5.688889 38.456889 14.620445 59.448889 1.763556 4.096 3.072 7.623111 2.901333 7.736889-0.398222 0.455111-26.055111-2.048-50.062222-4.835556a963.868444 963.868444 0 0 1-57.571556-8.704c-3.015111-0.512-3.128889-0.398222-3.128889 2.673778 0 4.209778 4.039111 20.593778 6.997334 28.330667 5.973333 15.701333 14.392889 31.402667 25.486222 47.274667 15.189333 21.845333 29.013333 36.579556 57.571555 61.553777l3.185778 2.787556-10.296889 8.533333c-15.416889 12.686222-27.761778 21.788444-43.064889 31.857778a413.297778 413.297778 0 0 1-37.262222 22.243556c-21.788444 11.946667-55.921778 26.737778-83.171555 36.010666-1.365333 0.455111-0.455111 1.536 14.222222 16.384a420.408889 420.408889 0 0 0 119.978667 82.375111 441.685333 441.685333 0 0 0 164.579555 41.187556c39.594667 2.275556 85.560889-3.470222 121.969778-15.303111a234.439111 234.439111 0 0 0 74.922667-39.253334 387.413333 387.413333 0 0 0 49.265777-48.071111 419.783111 419.783111 0 0 0 87.836445-203.662222c0-0.455111 0-0.853333 0.113778-1.137778 0.398222-1.308444 3.072-1.820444 18.147555-4.892444 8.192-1.706667 14.677333-3.356444 14.449778-3.754667a26.908444 26.908444 0 0 0-5.916445-2.844444 319.943111 319.943111 0 0 1-13.653333-6.087111l-8.192-3.868445 5.859556-1.706666c15.530667-4.494222 37.546667-11.434667 37.205333-11.776a367.331556 367.331556 0 0 0-18.204444-5.518223 500.622222 500.622222 0 0 1-21.845334-6.656l-4.039111-1.536v-0.568889l-0.568889 0.568889zM614.740196 551.480889a146.204444 146.204444 0 0 0-21.902223-27.932445c-22.755556-23.04-47.217778-36.465778-78.506666-43.235555a200.874667 200.874667 0 0 0-54.328889-1.365333c-41.244444 5.745778-69.12 19.854222-103.936 52.565333l-1.592889 1.479111c25.6 2.844444 81.066667 9.272889 100.352 12.288 24.234667 3.811556 75.946667 6.656 102.513778 6.656 21.219556 0 47.104-0.284444 57.457777-0.455111z" fill="#231B1B" p-id="5391"></path><path d="M177.321529 743.537778c12.117333 7.509333 36.408889 23.210667 50.801778 30.378666 27.022222 13.539556 88.746667 21.390222 109.112889 10.922667 20.366222-10.410667 35.157333-18.944 46.933333-53.589333 8.078222-23.722667-5.688889-53.646222-39.367111-81.123556s-111.786667-32.768-152.291556-36.522666l-1.308444-0.682667c-5.802667-0.284444-27.875556-2.503111-48.583111-4.892445a963.868444 963.868444 0 0 1-57.628445-8.704c-3.015111-0.512-3.128889-0.398222-3.128889 2.673778 0 4.209778 4.039111 20.593778 6.997334 28.330667 5.973333 15.701333 14.392889 31.402667 25.486222 47.274667 15.189333 21.845333 29.013333 36.579556 57.571555 61.553777l3.185778 2.787556 2.275556 1.649778z" fill="#392D2D" p-id="5392"></path><path d="M318.462862 574.976l-0.341333-0.170667c-0.341333 0.284444-0.682667 0.512-0.910222 0.512-0.512 0-10.24-2.56-21.617778-5.688889-19.911111-5.518222-30.492444-8.419556-52.906667-14.449777a954.595556 954.595556 0 0 1-67.584-21.617778c-0.284444 0-0.284444 5.461333 0 12.117333 0.796444 18.602667 5.688889 38.456889 14.620445 59.448889 1.763556 4.096 3.072 7.623111 2.901333 7.736889l-0.455111 0.056889 0.341333 0.682667s33.223111 2.844444 48.355556 4.721777c15.189333 1.934222 40.391111 7.111111 40.391111 7.111111 2.616889-3.640889 9.329778-12.8 14.677333-20.366222 5.233778-7.509333 17.066667-22.983111 22.528-30.037333z" fill="#2A2121" p-id="5393"></path><path d="M903.79264 341.959111a19.683556 19.683556 0 0 1 0.170667 2.56v585.955556a36.579556 36.579556 0 0 1-36.579556 36.636444h-232.675555a36.522667 36.522667 0 1 1 0-73.102222h196.096V382.919111h-215.779556a36.579556 36.579556 0 0 1-36.579556-36.579555V130.104889H196.379307v197.404444a36.579556 36.579556 0 1 1-73.216 0V93.468444c0-20.195556 16.384-36.579556 36.636444-36.579555h455.111111c1.536 0 3.015111 0.113778 4.380445 0.284444 0.113778 0.113778 0.455111 0.113778 0.455111 0.113778 1.706667 0.227556 3.356444 0.568889 4.949333 1.024 1.706667 0.398222 3.413333 1.024 5.006222 1.706667h0.113778a16.497778 16.497778 0 0 1 2.275556 1.137778c0.568889 0.227556 1.024 0.568889 1.479111 0.853333l0.796444 0.455111 0.170667 0.113778 0.113778 0.113778 0.568889 0.341333c0.455111 0.284444 0.967111 0.568889 1.365333 0.967111l0.227555 0.113778a31.914667 31.914667 0 0 1 2.218667 1.820444l0.113778 0.113778 1.820444 1.592889 252.359111 252.643555 1.592889 1.706667a0.910222 0.910222 0 0 1 0.341334 0.341333l0.113777 0.113778 0.739556 0.967111 0.739556 0.967111 0.227555 0.170667 1.308445 1.934222 0.113777 0.170667 0.113778 0.170667 0.568889 1.137777 0.625778 1.137778 0.284444 0.625778c0.341333 0.568889 0.568889 1.137778 0.853334 1.763556v0.113777a41.927111 41.927111 0 0 1 2.730666 9.955556c0.113778 0.113778 0.113778 0.398222 0.113778 0.398222z m-124.643556-32.312889L651.661084 181.930667v127.715555h127.431112z" fill="#F8BCC3" p-id="5394"></path></svg>